<?xml version="1.0" encoding="iso-8859-1"?>
<!-- Generator: Adobe Illustrator 19.0.0, SVG Export Plug-In . SVG Version: 6.00 Build 0)  -->
<svg version="1.1" id="Capa_1" xmlns="http://www.w3.org/2000/svg" xmlns:xlink="http://www.w3.org/1999/xlink" x="0px" y="0px"
	 viewBox="0 0 512 512" style="enable-background:new 0 0 512 512;" xml:space="preserve">
<g>
	<g>
		<path d="M504.396,248.396h-23.853c-1.841-55.279-23.704-107.435-62.063-147.584c-2.901-3.038-7.715-3.147-10.751-0.245
			c-3.036,2.901-3.147,7.714-0.245,10.751c35.641,37.307,56.007,85.733,57.842,137.079h-30.91
			c-3.892-92.439-78.374-166.922-170.812-170.816V46.67c45.35,1.661,89.301,18.109,124.51,46.756
			c3.258,2.65,8.047,2.157,10.697-1.099c2.65-3.258,2.159-8.047-1.099-10.697c-37.913-30.848-85.273-48.507-134.109-50.174V7.604
			C263.604,3.405,260.2,0,256,0s-7.604,3.405-7.604,7.604v23.85C191.23,33.342,137.759,56.482,97.119,97.123
			c-40.641,40.64-63.78,94.109-65.669,151.273H7.604C3.405,248.396,0,251.801,0,256s3.405,7.604,7.604,7.604H31.45
			c1.889,57.165,25.028,110.636,65.669,151.276c40.641,40.641,94.112,63.78,151.277,65.669v23.847c0,4.199,3.405,7.604,7.604,7.604
			s7.604-3.405,7.604-7.604v-23.848c57.164-1.889,110.633-25.029,151.272-65.669c40.641-40.641,63.78-94.111,65.669-151.276h23.851
			c4.2,0,7.604-3.405,7.604-7.604S508.596,248.396,504.396,248.396z M248.396,46.673v30.908
			C155.955,81.472,81.47,155.956,77.577,248.396H46.669C50.598,138.923,138.922,50.599,248.396,46.673z M248.396,465.329
			c-109.475-3.927-197.799-92.25-201.727-201.725h30.908c3.892,92.441,78.379,166.926,170.819,170.817V465.329z M256,394.035
			c-4.2,0-7.604,3.405-7.604,7.604v17.564c-84.055-3.869-151.731-71.544-155.601-155.599h17.566c4.199,0,7.604-3.405,7.604-7.604
			s-3.405-7.604-7.604-7.604H92.795c3.871-84.054,71.547-151.728,155.601-155.597v17.562c0,4.199,3.405,7.604,7.604,7.604
			s7.604-3.405,7.604-7.604V92.799c84.052,3.872,151.725,71.545,155.596,155.597h-17.56c-4.2,0-7.604,3.405-7.604,7.604
			s3.404,7.604,7.604,7.604h17.56c-3.87,84.053-71.544,151.728-155.596,155.599v-17.564C263.604,397.44,260.2,394.035,256,394.035z
			 M263.604,465.329v-30.907c92.439-3.894,166.922-78.379,170.814-170.817h30.908C461.398,373.077,373.076,461.4,263.604,465.329z"
			/>
	</g>
</g>
<g>
	<g>
		<path d="M359.696,282.573c4.2,0,7.604-3.405,7.604-7.604s-3.404-7.604-7.604-7.604h-32.42v-22.088h32.42
			c4.2,0,7.604-3.405,7.604-7.604s-3.404-7.604-7.604-7.604h-32.42v-17.866c0-4.199-3.404-7.604-7.604-7.604h-19.686v-16.047
			c0-14.591-7.147-27.539-18.118-35.546l15.26-26.107c2.12-3.626,0.898-8.282-2.726-10.402c-3.626-2.117-8.282-0.899-10.402,2.727
			l-15.82,27.066c-3.871-1.117-7.955-1.729-12.182-1.729s-8.312,0.611-12.185,1.73l-15.82-27.066
			c-2.119-3.626-6.779-4.845-10.402-2.727c-3.626,2.119-4.847,6.777-2.727,10.402l15.261,26.107
			c-10.97,8.008-18.116,20.953-18.116,35.545v16.047h-19.685c-4.199,0-7.604,3.405-7.604,7.604v17.866h-32.421
			c-4.199,0-7.604,3.405-7.604,7.604s3.405,7.604,7.604,7.604h32.421v22.088h-32.421c-4.199,0-7.604,3.405-7.604,7.604
			s3.405,7.604,7.604,7.604h32.421v22.088h-32.421c-4.199,0-7.604,3.405-7.604,7.604s3.405,7.604,7.604,7.604h33.995
			c6.864,32.183,35.504,56.398,69.705,56.398s62.841-24.215,69.705-56.398h33.994c4.2,0,7.604-3.405,7.604-7.604
			c0-4.199-3.404-7.604-7.604-7.604h-32.42v-22.088H359.696z M227.214,188.551c0-15.87,12.911-28.781,28.782-28.781
			c15.87,0,28.782,12.911,28.782,28.781v16.047h-57.564V188.551z M312.069,304.987c0,28.338-21.135,51.817-48.468,55.542v-50.924
			c0-4.199-3.405-7.604-7.604-7.604c-4.199,0-7.604,3.405-7.604,7.604v50.924c-27.332-3.724-48.468-27.204-48.468-55.542v-85.181
			h48.468v64.45c0,4.199,3.405,7.604,7.604,7.604c4.199,0,7.604-3.405,7.604-7.604v-64.45h48.468V304.987z"/>
	</g>
</g>
<g>
</g>
<g>
</g>
<g>
</g>
<g>
</g>
<g>
</g>
<g>
</g>
<g>
</g>
<g>
</g>
<g>
</g>
<g>
</g>
<g>
</g>
<g>
</g>
<g>
</g>
<g>
</g>
<g>
</g>
</svg>
